<svg xmlns="http://www.w3.org/2000/svg" viewBox="0 0 24 24" width="24" height="24">
  <path d="M12 0c-6.627 0-12 5.373-12 12 0 5.303 3.438 9.8 8.205 11.387.6.113.82-.258.82-.577v-2.165c-3.338.726-4.033-1.416-4.033-1.416-.546-1.387-1.333-1.757-1.333-1.757-1.089-.745.083-.729.083-.729 1.205.084 1.838 1.236 1.838 1.236 1.07 1.834 2.807 1.304 3.492.997.107-.775.418-1.305.762-1.605-2.665-.305-5.467-1.332-5.467-5.931 0-1.31.469-2.381 1.236-3.221-.123-.303-.535-1.524.117-3.176 0 0 1.008-.322 3.301 1.23.957-.266 1.983-.399 3.003-.404 1.02.005 2.047.138 3.006.404 2.289-1.552 3.295-1.23 3.295-1.23.653 1.653.241 2.874.118 3.176.77.84 1.234 1.911 1.234 3.221 0 4.609-2.807 5.624-5.479 5.921.43.371.823 1.102.823 2.222v3.293c0 .319.218.694.825.576 4.765-1.588 8.2-6.084 8.2-11.386 0-6.627-5.373-12-12-12z"/>
</svg>
