<svg xmlns="http://www.w3.org/2000/svg" viewBox="0 0 24 24" width="24" height="24">
  <path d="M19 0h-14c-2.761 0-5 2.239-5 5v14c0 2.761 2.239 5 5 5h14c2.761 0 5-2.239 5-5v-14c0-2.761-2.239-5-5-5zm-11 19h-3v-10h3v10zm-1.5-11.268c-.966 0-1.75-.804-1.75-1.732s.784-1.732 1.75-1.732 1.75.804 1.75 1.732-.784 1.732-1.75 1.732zm13.5 11.268h-3v-5.604c0-1.337-.026-3.064-1.868-3.064-1.869 0-2.156 1.459-2.156 2.963v5.705h-3v-10h2.881v1.367h.041c.401-.761 1.379-1.563 2.841-1.563 3.039 0 3.6 2.001 3.6 4.604v5.592z"/>
</svg>
